<?xml version="1.0" standalone="no"?>
<!DOCTYPE svg PUBLIC "-//W3C//DTD SVG 20010904//EN"
 "http://www.w3.org/TR/2001/REC-SVG-20010904/DTD/svg10.dtd">
<svg version="1.0" xmlns="http://www.w3.org/2000/svg"
 width="400.000000pt" height="400.000000pt" viewBox="0 0 400.000000 400.000000"
 preserveAspectRatio="xMidYMid meet">
<metadata>
Created by potrace 1.16, written by Peter Selinger 2001-2019
</metadata>
<g transform="translate(0.000000,400.000000) scale(0.100000,-0.100000)"
fill="#000000" stroke="none">
<path d="M913 3139 c-63 -40 -74 -72 -74 -217 -1 -158 14 -197 84 -231 43 -21
47 -21 1077 -21 1030 0 1034 0 1077 21 72 35 85 73 81 238 -3 126 -5 138 -27
168 -50 67 20 63 -1138 63 -1041 0 -1048 0 -1080 -21z"/>
<path d="M935 2318 c-32 -18 -66 -51 -81 -81 -11 -20 -15 -63 -15 -153 1 -144
12 -181 70 -220 l36 -24 1055 0 1055 0 36 24 c59 40 71 79 70 224 -2 145 -16
184 -81 221 l-38 21 -1043 0 c-744 -1 -1050 -4 -1064 -12z"/>
<path d="M928 1479 c-21 -10 -49 -36 -63 -56 -24 -36 -25 -45 -25 -174 0 -125
2 -139 23 -170 12 -18 40 -44 62 -56 l40 -23 1035 0 1035 0 40 23 c22 12 50
38 62 56 21 31 23 45 23 170 0 129 -1 138 -25 174 -14 20 -43 46 -65 57 -38
20 -58 20 -1072 20 -1007 -1 -1034 -1 -1070 -21z"/>
</g>
</svg>
