<?xml version="1.0" standalone="no"?>
<!DOCTYPE svg PUBLIC "-//W3C//DTD SVG 20010904//EN"
 "http://www.w3.org/TR/2001/REC-SVG-20010904/DTD/svg10.dtd">
<svg version="1.0" xmlns="http://www.w3.org/2000/svg"
 width="427.000000pt" height="409.000000pt" viewBox="0 0 427.000000 409.000000"
 preserveAspectRatio="xMidYMid meet">
<metadata>
Created by potrace 1.16, written by Peter Selinger 2001-2019
</metadata>
<g transform="translate(0.000000,409.000000) scale(0.100000,-0.100000)"
fill="#000000" stroke="none">
<path d="M2365 3561 c-113 -29 -174 -109 -175 -229 0 -79 17 -119 75 -178 26
-25 45 -47 43 -48 -40 -28 -82 -53 -168 -98 -58 -30 -170 -93 -250 -138 -80
-46 -201 -113 -270 -148 -69 -36 -130 -72 -137 -81 -18 -24 -16 -66 6 -92 l18
-23 891 0 c879 -1 892 -1 911 19 51 53 26 104 -75 154 -77 37 -389 211 -444
246 -19 13 -84 48 -143 79 -144 74 -150 79 -167 134 -13 40 -22 51 -65 74 -91
49 -110 104 -56 159 42 41 86 40 141 -6 50 -42 81 -44 109 -9 26 33 26 60 1
101 -36 60 -166 105 -245 84z m102 -605 c248 -143 337 -193 396 -223 37 -19
67 -39 67 -44 0 -10 -1033 -13 -1043 -2 -4 3 32 27 80 53 101 54 130 70 308
174 71 42 130 76 131 76 1 0 28 -15 61 -34z"/>
<path d="M616 3175 c-29 -27 -34 -69 -12 -98 22 -29 72 -37 237 -37 183 0 180
1 208 -107 10 -37 55 -187 99 -333 44 -146 89 -299 100 -340 12 -41 32 -111
46 -155 13 -44 38 -127 56 -185 17 -58 42 -142 56 -187 46 -155 76 -258 90
-310 16 -61 55 -120 102 -154 74 -54 73 -52 59 -76 -6 -11 -28 -50 -48 -85
-20 -34 -57 -101 -84 -146 -53 -92 -62 -150 -30 -198 36 -55 17 -54 895 -54
676 0 816 2 845 14 58 25 72 80 30 121 l-24 25 -796 0 c-437 0 -795 4 -795 8
0 4 14 29 30 56 17 26 44 75 61 108 35 69 79 139 94 150 5 4 277 8 604 8 575
0 596 1 636 20 93 45 163 139 205 275 13 43 146 384 185 475 13 30 46 118 75
195 28 77 69 183 89 235 51 126 55 150 37 194 -25 60 -61 86 -119 86 -81 0
-119 -86 -58 -131 l30 -22 -23 -61 c-13 -34 -38 -96 -55 -138 l-33 -77 -26 25
c-15 13 -36 27 -47 30 -11 2 -436 3 -943 2 l-924 -3 -24 -30 c-29 -36 -36 -29
-60 55 -8 30 -29 98 -44 150 -60 194 -109 366 -120 415 -22 103 -60 191 -102
233 -59 61 -106 72 -308 72 -163 0 -168 -1 -194 -25z m2744 -1036 c0 -11 -11
-48 -24 -82 -13 -34 -34 -90 -46 -124 -12 -35 -26 -63 -30 -63 -4 0 -15 9 -25
20 -18 20 -31 20 -835 20 l-817 0 -23 -25 c-13 -14 -26 -25 -29 -25 -12 0 -81
251 -81 292 0 5 430 8 955 8 l955 0 0 -21z m-150 -406 c-25 -87 -125 -312
-147 -336 -15 -15 -43 -32 -62 -37 -22 -6 -271 -10 -636 -10 -563 0 -602 2
-641 19 -24 11 -49 33 -61 52 -18 30 -103 301 -103 328 0 8 242 11 829 11
l830 0 -9 -27z"/>
<path d="M2339 1652 c-53 -4 -74 -33 -70 -94 0 -10 10 -27 21 -38 17 -17 33
-20 113 -20 50 0 97 4 104 8 6 4 18 20 27 36 15 30 7 75 -17 94 -13 11 -120
19 -178 14z"/>
<path d="M1693 624 c-23 -9 -60 -33 -82 -55 -55 -55 -74 -111 -69 -198 3 -59
9 -77 35 -113 47 -66 112 -102 193 -106 81 -5 125 13 185 73 63 63 83 169 50
267 -40 115 -185 177 -312 132z m148 -163 c53 -54 37 -132 -31 -152 -50 -15
-89 4 -113 53 -17 34 -17 39 -3 67 35 66 98 80 147 32z"/>
<path d="M2900 631 c-103 -32 -167 -122 -171 -239 -3 -85 57 -184 134 -221
168 -81 375 66 354 251 -18 147 -177 251 -317 209z m129 -160 c34 -26 41 -106
13 -141 -16 -20 -29 -25 -66 -25 -60 0 -100 37 -100 91 0 74 95 120 153 75z"/>
</g>
</svg>
